<?xml version="1.0" standalone="no"?>
<!DOCTYPE svg PUBLIC "-//W3C//DTD SVG 20010904//EN"
 "http://www.w3.org/TR/2001/REC-SVG-20010904/DTD/svg10.dtd">
<svg version="1.0" xmlns="http://www.w3.org/2000/svg"
 width="1000.000000pt" height="1000.000000pt" viewBox="0 0 1000.000000 1000.000000"
 preserveAspectRatio="xMidYMid meet">
<metadata>
Created by potrace 1.11, written by Peter Selinger 2001-2013
</metadata>
<g transform="translate(0.000000,1000.000000) scale(0.100000,-0.100000)"
fill="#000000" stroke="none">
<path d="M5900 8020 c-54 -48 -156 -103 -239 -130 -131 -42 -324 -44 -471 -5
-30 8 -55 13 -57 12 -1 -2 28 -16 65 -32 58 -24 101 -46 242 -122 14 -7 36
-21 49 -32 l24 -18 -89 -61 c-49 -33 -108 -77 -130 -96 l-42 -36 14 -37 c18
-52 17 -62 -5 -56 -21 5 -70 89 -82 140 -11 50 14 124 56 167 19 20 32 36 29
36 -3 0 -29 -11 -57 -24 -52 -25 -193 -69 -257 -80 -79 -15 -227 -15 -293 -1
-73 15 -168 55 -201 83 -11 9 -6 -2 12 -25 33 -43 70 -117 77 -156 4 -17 -4
-13 -34 21 l-38 42 -159 0 c-87 0 -185 -3 -218 -5 -50 -4 -57 -3 -52 11 3 9 9
28 12 42 4 15 11 33 17 40 5 7 7 15 3 19 -7 7 -157 -93 -329 -220 -116 -86
-120 -88 -152 -77 -31 10 -213 115 -225 129 -3 3 -25 22 -50 42 -25 20 -67 57
-93 83 -27 25 -52 46 -56 46 -3 0 -13 -21 -20 -47 -7 -27 -29 -79 -48 -118
-71 -142 -143 -226 -241 -284 -43 -25 -64 -33 -132 -48 -55 -12 -170 2 -255
33 -11 4 6 -17 38 -46 89 -80 108 -132 76 -198 -19 -38 -60 -73 -122 -104 -21
-11 -44 -12 -85 -7 -32 4 -83 10 -115 12 l-58 4 -53 -66 c-113 -141 -196 -285
-177 -304 17 -17 14 -21 -52 -73 -34 -27 -108 -93 -164 -147 l-102 -99 -90 -2
c-50 -2 -139 3 -198 10 -60 6 -109 11 -111 9 -1 -1 1 -13 6 -26 22 -59 -22
-195 -91 -284 -36 -46 -138 -148 -199 -199 -47 -39 -60 -57 -72 -99 -9 -29
-27 -88 -41 -131 l-24 -79 22 21 c24 22 97 65 103 60 1 -2 -3 -17 -10 -33 -90
-203 -84 -173 -63 -289 41 -224 33 -202 85 -232 l47 -28 -35 -9 c-64 -16 -169
-5 -232 26 -55 27 -144 107 -162 147 -18 40 -22 18 -10 -57 16 -105 11 -291
-10 -373 -36 -133 -128 -259 -225 -307 l-45 -22 -3 -70 c-8 -205 -106 -388
-257 -476 -56 -33 -60 -61 -13 -90 72 -46 103 -141 93 -285 -3 -47 -8 -98 -11
-115 -15 -79 -57 -239 -83 -318 -17 -48 -29 -87 -28 -87 2 0 24 35 49 78 52
90 85 131 180 226 l70 70 21 -25 c11 -14 44 -43 71 -64 28 -22 53 -42 57 -45
5 -3 -8 -43 -27 -89 -66 -156 -86 -284 -54 -342 15 -28 89 -239 89 -254 0 -9
-17 -29 -108 -130 -35 -39 -34 -42 50 -105 84 -62 87 -67 104 -154 11 -59 25
-76 96 -123 l72 -48 2 -60 c1 -33 2 -84 3 -112 l1 -53 73 5 c132 8 283 62 599
214 82 39 151 71 154 71 3 0 20 6 37 14 63 26 345 141 537 218 41 17 89 36
105 43 109 48 521 204 760 290 88 31 169 61 180 65 11 5 74 28 140 50 215 75
392 139 875 317 52 19 113 41 135 48 22 8 78 28 125 45 47 17 96 35 110 40 14
5 124 43 245 85 323 112 943 318 1055 350 25 7 135 41 245 75 230 70 666 198
735 215 8 3 139 38 290 80 242 66 954 249 1019 261 18 4 408 98 659 160 9 2
44 10 77 18 33 8 126 31 208 50 178 44 372 90 612 146 275 64 255 58 255 84 0
33 -54 135 -95 179 -19 21 -33 42 -30 47 3 5 -22 64 -56 132 l-61 122 20 84
20 85 -42 43 c-34 34 -47 57 -63 116 -11 40 -17 81 -15 91 4 16 9 13 36 -17
37 -43 47 -46 36 -8 -29 97 -194 422 -229 452 -15 12 -48 69 -68 115 -71 165
-72 167 -90 161 -10 -2 -34 -8 -53 -12 -32 -6 -33 -5 -21 10 12 14 12 23 2 52
-7 20 -11 38 -8 40 6 6 34 11 112 18 33 4 71 8 85 10 14 3 52 7 84 10 55 5 87
15 55 17 -51 3 -154 55 -247 126 -87 66 -218 204 -310 325 l-67 88 -50 -7
c-245 -33 -438 69 -549 288 l-45 90 -29 -43 c-39 -57 -87 -104 -141 -139 -58
-37 -74 -38 -60 -3 7 20 6 31 -4 43 -7 9 -54 63 -103 121 -49 58 -97 114 -106
125 -9 11 -25 30 -35 42 -21 24 -104 42 -269 58 -32 3 -77 8 -99 10 -22 2 -72
5 -112 6 -64 1 -73 4 -79 23 -11 34 -5 97 16 177 11 41 20 80 20 87 0 18 -34
15 -61 -6 -50 -39 -155 -82 -212 -87 -195 -19 -336 153 -225 273 26 27 19 28
-24 3 -82 -47 -248 -89 -357 -89 -148 0 -263 44 -371 144 -32 30 -59 54 -61
54 -2 -1 -24 -19 -49 -40z m-2107 -725 c-3 -8 -9 -16 -14 -16 -5 -1 -13 -2
-18 -3 -15 -2 -105 -64 -138 -96 -28 -26 -83 -57 -83 -46 0 3 137 107 215 162
32 23 48 22 38 -1z m-1973 -1516 c-47 -37 -65 -40 -26 -4 22 19 42 32 45 29 3
-3 -5 -14 -19 -25z m-301 -163 c-2 -2 -15 -9 -29 -16 -23 -12 -24 -12 -11 3 7
10 20 17 29 17 8 0 13 -2 11 -4z"/>
</g>
</svg>
